<?xml version="1.0" encoding="UTF-8"?> <!-- Generator: Adobe Illustrator 27.0.0, SVG Export Plug-In . SVG Version: 6.00 Build 0) --> <svg xmlns="http://www.w3.org/2000/svg" xmlns:xlink="http://www.w3.org/1999/xlink" id="Слой_1" x="0px" y="0px" viewBox="0 0 949.6 178" style="enable-background:new 0 0 949.6 178;" xml:space="preserve"> <style type="text/css"> .st0{fill:#4A78EC;} .st1{fill:#FFFFFF;} </style> <path class="st0" d="M117.1,41.4c0-13.4-4.4-23.4-13.2-30c-8.8-6.6-20.2-9.9-34.2-9.9H-0.2v140.6h30.6V91h26.1l29.7,51.4h34.5 L87.7,85.1C104.8,77.7,117.1,63.2,117.1,41.4 M30.4,25.8h30.6c7.9,0,14.2,1.3,18.9,3.9c4.7,2.6,7,7.6,7,15 c0,19.8-9.2,23.9-27.2,23.9H30.4V25.8z"></path> <path class="st0" d="M168.3,37.3c-14.9,0-27.1,5.1-36.7,15.4c-9.6,10.3-14.4,23.3-14.4,39.1c0,16.1,4.8,29,14.3,38.7 c9.5,9.7,22.1,14.6,37.8,14.6c11.7,0,21.8-3,30.3-9.1s14.3-14.5,17.5-25.5h-26.9c-3.9,9.9-10.9,14.8-20.7,14.8 c-7.5,0-13.3-2.3-17.5-6.9c-4.1-4.6-6.3-11.3-6.4-20.1h73.1v-2.8c0-17.9-4.5-32.1-13.6-42.6C195.9,42.5,183.7,37.3,168.3,37.3 M145.6,80.5c0.8-7.1,3.2-12.7,7.3-16.8c4.1-4.1,9.2-6.1,15.4-6.1c6.6,0,11.7,2.1,15.4,6.4c3.7,4.3,5.9,9.8,6.5,16.5H145.6z"></path> <path class="st1" d="M608.7,37.9c-13.6,0-24.3,4.9-32.2,14.8V1.5h-27.8v140.6h26.7l-0.2-12.8c7.2,10.4,17.9,15.6,32,15.6 c13.4,0,24.3-5,32.7-15.1c8.4-10.1,12.5-23.3,12.5-39.6c0-15.1-3.9-27.6-11.7-37.5C632.9,42.8,622.3,37.9,608.7,37.9 M617.5,113.7 c-4.4,5.8-10.2,8.7-17.5,8.7c-7.6,0-13.6-2.8-18-8.5c-4.3-5.7-6.5-13.4-6.5-23.3c0-9.6,2.2-17.2,6.6-22.8c4.4-5.6,10.4-8.4,17.9-8.4 c7.2,0,13.1,2.8,17.5,8.5c4.4,5.7,6.6,13.2,6.6,22.5C624.1,100.1,621.9,107.9,617.5,113.7"></path> <path class="st1" d="M506.9,92.7c0,19.2-7.4,28.8-22.1,28.8c-3.8,0-6.9-0.6-9.4-1.7c-2.4-1.1-4.2-2.9-5.2-5.2 c-1.1-2.4-1.7-4.7-2.1-7c-0.3-2.3-0.5-5.4-0.5-9.2V40.2h-28.2v68.5c0,12,3.1,21,9.4,27.1c6.3,6.1,15,9.2,26.2,9.2 c14.2,0,25.3-5.8,33.2-17.4v14.4h26.7V40.2h-27.8L506.9,92.7L506.9,92.7z"></path> <path class="st1" d="M383.9,37.5c-13.7,0-24.2,5.1-31.6,15.4V40.2h-26.5v138h27.8v-48.8c7.2,10.1,17.7,15.2,31.4,15.2 c13.3,0,24-4.8,32.1-14.5c8.1-9.7,12.1-22.5,12.1-38.4c0-16.5-4.1-29.6-12.4-39.5C408.6,42.4,397.6,37.5,383.9,37.5 M394.9,114.5 c-4.3,5.5-10.2,8.3-17.7,8.3c-7.6,0-13.6-2.8-18-8.3c-4.3-5.5-6.5-13.2-6.5-23.1c0-9.9,2.1-17.6,6.4-23.1c4.3-5.5,10.2-8.3,17.9-8.3 c7.5,0,13.4,2.8,17.8,8.5c4.3,5.7,6.5,13.4,6.5,23.3C401.3,101.4,399.2,108.9,394.9,114.5"></path> <rect x="662.9" y="1.5" class="st1" width="28" height="140.6"></rect> <path class="st1" d="M946.4,114.5v-44c0-22.1-14.8-33.2-44.4-33.2c-29.9,0-45.6,11.5-47.2,34.4h26.3c0.9-5.8,2.9-9.8,5.9-12.1 c3-2.3,7.8-3.5,14.2-3.5c12.2,0,18.4,4.5,18.4,13.6c0,3.9-1.7,6.6-5,8.1s-10,2.8-19.8,4.1c-4.5,0.5-8,1-10.5,1.5 c-2.5,0.5-5.8,1.1-9.9,2.1c-4.1,0.9-7.3,2.1-9.6,3.6c-2.3,1.4-4.7,3.3-7.3,5.5c-2.6,2.2-4.4,5-5.5,8.3c-1.1,3.3-1.7,7.1-1.7,11.4 c0,9.6,3.2,17.1,9.7,22.6c6.5,5.5,15.3,8.2,26.7,8.2c13.4,0,24.4-4.3,33-12.8c0.4,3.9,1.1,7.2,2,9.9H950 C947.6,136.6,946.4,127.4,946.4,114.5 M919.4,104c0,7.1-2.3,12.7-6.8,16.7c-4.5,4-10.6,6-18.1,6c-4.9,0-8.7-1.2-11.4-3.7 c-2.7-2.4-4-5.8-4-10c0-4.3,1.4-7.8,4.3-10.3c2.5-2,7.9-3.6,16.2-4.9c9.9-1.6,16.5-3.4,19.7-5.3L919.4,104L919.4,104z"></path> <path class="st1" d="M797.6,123.3c-7.5,0-13.3-2.8-17.5-8.4c-4.1-5.6-6.2-13.5-6.2-23.6c0-10.4,2.1-18.5,6.4-24.4 c4.3-5.9,10.2-8.8,17.9-8.8c11.3,0,18,5.9,20.1,17.6h27.4c-1.2-11.8-6.1-21.2-14.6-28.1c-8.6-6.9-19.6-10.4-33.2-10.4 c-15.8,0-28.5,5-38,15c-9.5,10-14.3,23.2-14.3,39.7c0,15.9,4.7,28.7,14.2,38.3c9.5,9.6,22,14.4,37.7,14.4c13.6,0,24.7-3.7,33.3-11.1 c8.6-7.4,13.8-17.6,15.5-30.8h-27C817.1,116.5,809.9,123.3,797.6,123.3"></path> <path class="st1" d="M308.2,90.5c-2.2-2-5.4-3.9-9.5-5.5c-4.1-1.6-7.5-2.8-10.4-3.6c-2.8-0.7-6.6-1.5-11.4-2.5 c-0.7-0.1-1.7-0.3-3.2-0.6c-8.2-1.7-13.8-3.3-17-4.7c-3.2-1.5-4.7-4-4.7-7.7c0-3.2,1.4-5.6,4.1-7.4c2.8-1.8,6.6-2.7,11.6-2.7 c5.9,0,10.4,1.1,13.5,3.2c3.1,2.1,5,5.7,5.8,10.9h26.1c-0.4-11.2-4.7-19.4-12.8-24.7c-8.2-5.3-18.6-7.9-31.4-7.9 c-14.2,0-25.2,2.7-33,8.1c-7.8,5.4-11.6,13.1-11.6,23.1c0,2.6,0.2,5.1,0.7,7.3c0.5,2.2,1.3,4.2,2.6,6c1.2,1.8,2.4,3.3,3.5,4.6 c1.1,1.3,2.7,2.5,4.8,3.7c2.2,1.1,3.9,2,5.2,2.8c1.3,0.7,3.4,1.5,6.2,2.3c2.8,0.8,4.9,1.4,6.1,1.7c1.2,0.3,3.5,0.8,6.6,1.5 c3.2,0.7,5.2,1.1,6.1,1.4c0.4,0.1,0.9,0.3,1.6,0.4c8.2,1.8,13.8,3.6,16.8,5.1c3,1.6,4.5,4.3,4.5,8.1c0,3.8-1.7,6.9-5,9.2 c-3.4,2.3-7.9,3.5-13.5,3.5c-13.6,0-20.8-5.7-21.7-17h-26.7c0.1,12.2,4.7,21.3,13.6,27.2c9,5.9,20.3,8.9,34.2,8.9 c14.5,0,25.9-3.1,34.2-9.3c8.3-6.2,12.4-14.6,12.4-25.3c0-4.5-0.9-8.4-2.6-11.8C312.4,95.2,310.4,92.5,308.2,90.5"></path> <rect x="706.5" y="40.2" class="st1" width="28" height="101.9"></rect> <path class="st1" d="M721.6-0.5c-8.4,0-15.2,6.8-15.2,15.2c0,8.4,6.8,15.2,15.2,15.2s15.2-6.8,15.2-15.2 C736.8,6.2,730-0.5,721.6-0.5"></path> </svg> 